# xmcd CD database file
#
# Track frame offsets:
#	187
#	21795
#	42475
#	64045
#
# Disc length: 1126 seconds
#
# Revision: 4
# Processed by: cddbd v1.5PL3 Copyright (c) Steve Scherf et al.
# Submitted via: CDex 1.51
#
DISCID=2e046404
DTITLE=SMAP - しようよ
DYEAR=1997
DGENRE=JPop
TTITLE0=しようよ
TTITLE1=Let's go to 週末ヘヴン
TTITLE2=しようよ(カラオケ)
TTITLE3=Let's go to 週末ヘヴン(カラオケ)
EXTD=YEAR: 1997
EXTT0=
EXTT1=
EXTT2=
EXTT3=
PLAYORDER=
